<?xml version="1.0" standalone="no"?>
<!DOCTYPE svg PUBLIC "-//W3C//DTD SVG 20010904//EN"
 "http://www.w3.org/TR/2001/REC-SVG-20010904/DTD/svg10.dtd">
<svg version="1.0" xmlns="http://www.w3.org/2000/svg"
 width="512.000000pt" height="512.000000pt" viewBox="0 0 512.000000 512.000000"
 preserveAspectRatio="xMidYMid meet">

<g transform="translate(0.000000,512.000000) scale(0.100000,-0.100000)"
fill="#FFFFFF" stroke="none">
<path d="M3799 5101 c-23 -19 -24 -24 -27 -191 -4 -185 2 -211 51 -229 28 -10
74 5 87 29 6 10 10 97 10 194 l0 175 -26 20 c-33 26 -65 27 -95 2z"/>
<path d="M4293 4707 c-135 -135 -145 -156 -98 -202 47 -48 68 -37 203 98 134
134 144 156 97 202 -46 47 -67 37 -202 -98z"/>
<path d="M3481 4464 c-104 -35 -157 -74 -305 -223 -109 -109 -129 -134 -129
-160 0 -43 28 -71 71 -71 32 0 49 13 171 133 176 173 212 192 361 192 96 0
110 -3 165 -29 154 -76 245 -251 216 -412 -25 -133 5 -100 -910 -1017 l-846
-847 -275 275 -275 275 628 628 c571 571 627 630 627 660 0 42 -30 72 -72 72
-30 0 -92 -59 -698 -662 -367 -365 -707 -700 -758 -746 -105 -96 -118 -118
-207 -362 l-57 -155 -418 -420 c-230 -231 -426 -436 -436 -455 -13 -24 -18
-57 -18 -105 0 -77 15 -118 66 -172 l30 -31 -29 -44 c-41 -59 -56 -111 -55
-185 1 -100 25 -139 180 -296 265 -268 373 -311 764 -305 197 3 216 5 254 25
48 26 100 82 122 132 19 46 19 146 0 192 -22 50 -74 107 -120 130 -81 41 -106
38 -487 -56 l-353 -88 -90 89 c-102 102 -120 129 -120 190 0 39 27 104 42 104
4 0 17 -12 31 -26 59 -65 185 -93 267 -59 25 11 170 149 457 435 l420 419 163
61 c246 91 266 101 357 198 44 47 483 490 976 986 758 762 900 910 926 961 97
187 89 392 -21 558 -132 199 -390 288 -615 211z m-1588 -2272 l277 -277 -60
-63 c-73 -75 -79 -78 -310 -164 l-185 -69 -425 -424 c-512 -512 -449 -479
-611 -318 -115 113 -133 146 -109 194 7 13 200 213 430 444 l419 420 62 170
c34 94 70 189 81 212 18 38 128 153 146 153 4 0 132 -125 285 -278z m-427
-1851 c44 -27 60 -77 40 -124 -25 -60 -50 -67 -259 -67 -101 0 -206 4 -233 9
-64 12 -167 51 -159 59 9 9 524 140 555 141 14 1 39 -8 56 -18z"/>
<path d="M1632 2190 c-59 -14 -112 -57 -138 -113 -38 -82 -28 -159 29 -224
127 -144 367 -54 367 138 0 126 -133 230 -258 199z m96 -168 c16 -21 15 -43
-4 -70 -30 -44 -104 -16 -104 39 0 10 12 27 27 38 28 23 59 20 81 -7z"/>
<path d="M4396 4209 c-34 -27 -36 -77 -3 -107 22 -21 32 -22 198 -22 171 0
176 1 197 23 31 33 29 80 -4 106 -25 19 -40 21 -194 21 -154 0 -169 -2 -194
-21z"/>
</g>
</svg>
